<svg id="Layer_1" data-name="Layer 1" xmlns="http://www.w3.org/2000/svg" viewBox="0 0 472 82"><defs><style>.cls-1{fill:#547dbf;}.cls-2{fill:#34a851;stroke:#34a851;}.cls-2,.cls-4{stroke-miterlimit:10;}.cls-3{fill:#f8bb16;}.cls-4{fill:#ea4435;stroke:#ea4435;}</style></defs><title>Banner</title><rect class="cls-1" x="37" y="39.6" width="44.7" height="12.58" rx="4.7" ry="4.7" transform="translate(-10.1 74.4) rotate(-60)"/><polygon class="cls-2" points="78 13 58.9 24.1 78 35.1 78 13"/><path class="cls-3" d="M21.5,34.3,42.8,66.7a4.9,4.9,0,0,0,5.8,1.9L54.2,66c2-.8,2.5-3.1,1.2-5.1L34.2,28.5a5,5,0,0,0-5.9-1.9l-5.6,2.6A3.4,3.4,0,0,0,21.5,34.3Z"/><rect class="cls-4" x="-3.8" y="39.8" width="46.1" height="12.58" rx="4.7" ry="4.7" transform="translate(-30.3 39.7) rotate(-60)"/><path d="M117.4,43.5h-5.9l-9.4-16.1H102v16H96.1V17.9H102L111.4,34h.1V17.9h5.9Z"/><path d="M120.3,34.1a12,12,0,0,1,2-7.2,6.2,6.2,0,0,1,5.4-2.7,5,5,0,0,1,2.7.7,5.3,5.3,0,0,1,1.9,2l.4-2.4H138V43.3a7,7,0,0,1-2.6,5.8,10.9,10.9,0,0,1-7.1,2.1,11.5,11.5,0,0,1-3.1-.4,16.3,16.3,0,0,1-3.1-1.1l1-4.4,2.5.9,2.7.2a4.5,4.5,0,0,0,2.8-.7,3,3,0,0,0,.9-2.4V41.8a5.8,5.8,0,0,1-1.9,1.6,6,6,0,0,1-2.4.5,6.5,6.5,0,0,1-5.5-2.6,11.8,11.8,0,0,1-1.9-6.9Zm5.9.3a8.2,8.2,0,0,0,.7,3.6,2.4,2.4,0,0,0,2.3,1.3,4.7,4.7,0,0,0,1.7-.3,3.1,3.1,0,0,0,1.1-.9v-8a3.5,3.5,0,0,0-1.1-1,4.3,4.3,0,0,0-1.7-.4,2.5,2.5,0,0,0-2.3,1.5,10.5,10.5,0,0,0-.7,3.9Z"/><path d="M151.9,29.6h-2a3.5,3.5,0,0,0-1.6.3,2.1,2.1,0,0,0-1,1.1V43.5h-5.9v-19h5.5l.3,2.8a5.7,5.7,0,0,1,1.5-2.3,3.4,3.4,0,0,1,2.3-.8h.8l.6.2Z"/><path d="M165,43.5a5,5,0,0,1-.5-1.3,9.4,9.4,0,0,1-.4-1.6,7.8,7.8,0,0,1-1.9,2.4,4.9,4.9,0,0,1-3,.9,6.5,6.5,0,0,1-4.6-1.5,5.7,5.7,0,0,1-1.7-4.2,5.1,5.1,0,0,1,2.1-4.4c1.5-1,3.6-1.5,6.5-1.5h2.4V30.9a3.6,3.6,0,0,0-.5-1.9,2.4,2.4,0,0,0-1.8-.6,2.5,2.5,0,0,0-1.6.5,2.1,2.1,0,0,0-.5,1.5h-5.8a5.3,5.3,0,0,1,2.2-4.4,9.6,9.6,0,0,1,6.1-1.7,8.8,8.8,0,0,1,5.7,1.7,6.1,6.1,0,0,1,2.2,5v7.2a23,23,0,0,0,.2,2.8,19.8,19.8,0,0,0,.8,2.6Zm-4.2-3.8a4.2,4.2,0,0,0,2-.5,3.3,3.3,0,0,0,1.1-1.3V35.4h-2.4a2.8,2.8,0,0,0-2,.7,2.8,2.8,0,0,0-.6,1.8,1.7,1.7,0,0,0,.5,1.3A2.4,2.4,0,0,0,160.8,39.7Z"/><path d="M178.7,24.5l.2,2.5a6.6,6.6,0,0,1,2.3-2.1,7.2,7.2,0,0,1,6.2,0,4.7,4.7,0,0,1,1.9,2.4,6.1,6.1,0,0,1,5.5-3.1,5.3,5.3,0,0,1,4.4,2c1,1.3,1.5,3.3,1.5,6.1V43.5h-5.9V32.3a4.6,4.6,0,0,0-.6-2.8,2,2,0,0,0-1.7-.8,3.3,3.3,0,0,0-1.5.3,2.4,2.4,0,0,0-1.1.9V43.5H184V32.3a4.6,4.6,0,0,0-.6-2.8,2.1,2.1,0,0,0-1.7-.8,3.3,3.3,0,0,0-1.5.3,3.1,3.1,0,0,0-1.1.9V43.5h-6v-19Z"/><path d="M100.2,61.9H96l-1,2.6h-.8l3.5-9.2h.7l3.5,9.2h-.8Zm-4-.6h3.7l-1.8-5.1Z"/><path d="M103.8,57.7v1.1l.4-.5a1,1,0,0,1,.5-.4l.6-.3h.7l.9.2.7.4a2.2,2.2,0,0,1,.5.8,4.1,4.1,0,0,1,.1,1.2v4.4h-.8V60.1a2.2,2.2,0,0,0-.1-.9,1.1,1.1,0,0,0-.8-.9h-1.4l-.6.4a1,1,0,0,0-.4.5.9.9,0,0,0-.3.6v4.7h-.8V57.7Z"/><path d="M114.6,64.5c0-.1-.1-.2-.1-.4v-.5l-.5.4-.5.3-.6.3h-.8l-.9-.2-.7-.4a2.1,2.1,0,0,1-.4-.6,2.4,2.4,0,0,1-.2-.8,2.9,2.9,0,0,1,.2-.9l.6-.7,1-.4,1.3-.2h1.4v-.7a1.6,1.6,0,0,0-.4-1.2,1.8,1.8,0,0,0-1.3-.4h-.8l-.5.3-.4.4a1.4,1.4,0,0,0-.2.6h-.7a1.1,1.1,0,0,1,.2-.8,1.5,1.5,0,0,1,.5-.6l.8-.5,1.1-.2,1,.2a2,2,0,0,1,.8.4,1.8,1.8,0,0,1,.5.7,3,3,0,0,1,.2,1v3.7a.4.4,0,0,0,.1.3v.7h-.8Zm-2.4-.5h.8l.6-.3.5-.4c.1-.2.3-.4.3-.6V61.1h-2.3l-.8.3-.5.5a1.8,1.8,0,0,0,0,1.2l.3.4.5.3Z"/><path d="M118.1,64.5h-.8V54.8h.8Z"/><path d="M122.3,63.4l2-5.7h.8l-2.9,7.9a1.4,1.4,0,0,1-.2.6l-.3.5-.6.4-.8.2h-.6v-.6h1l.4-.2.3-.4c.1-.1.1-.3.2-.5l.3-.9-2.5-6.8h.8Z"/><path d="M127.5,55.9v1.8h1.4v.6h-1.4v4.6a.7.7,0,0,0,.1.5.5.5,0,0,0,.2.4c0,.1.1.1.3.2h.9v.7h-1.4l-.4-.3a1.3,1.3,0,0,1-.4-.6c0-.2-.1-.5-.1-.8V58.3h-1.2v-.6h1.2V55.9Z"/><path d="M130.4,55.7a.5.5,0,0,1,.2-.4h.8c0,.1.1.2.1.4s-.1.2-.1.3l-.4.2-.4-.2Zm.9,8.8h-.7V57.7h.7Z"/><path d="M135.9,64h.7l.6-.3a1.2,1.2,0,0,0,.5-.5,6.4,6.4,0,0,0,.2-.7h.7a1.6,1.6,0,0,1-.3.9,1.8,1.8,0,0,1-.5.7l-.9.5-1,.2a2.4,2.4,0,0,1-1.2-.3,2.2,2.2,0,0,1-.9-.7,2.4,2.4,0,0,1-.6-1.1,5.9,5.9,0,0,1-.2-1.4V61a5.9,5.9,0,0,1,.2-1.4,2.4,2.4,0,0,1,.6-1.1,2.2,2.2,0,0,1,.9-.7,2.4,2.4,0,0,1,1.2-.3l1.1.2.8.5.6.8a3,3,0,0,1,.2,1h-.7c-.1-.3-.1-.5-.2-.8l-.4-.5-.6-.4h-.8l-1,.2c-.2.2-.5.4-.6.6a3.6,3.6,0,0,0-.4.9,4.1,4.1,0,0,0-.1,1.1v.2a3.7,3.7,0,0,0,.1,1.1,3.6,3.6,0,0,0,.4.9c.1.2.4.4.6.6Z"/><path d="M144.4,64.5a.8.8,0,0,0-.1-.4v-.5l-.4.4-.5.3-.7.3H142l-.9-.2c-.3-.1-.6-.2-.7-.4l-.5-.6a2.4,2.4,0,0,1-.2-.8,1.6,1.6,0,0,1,.3-.9,1.3,1.3,0,0,1,.6-.7l1-.4,1.3-.2h1.4v-.7a1.7,1.7,0,0,0-.5-1.2,1.7,1.7,0,0,0-1.3-.4h-.7l-.6.3-.4.4a1.3,1.3,0,0,0-.1.6h-.8a1.9,1.9,0,0,1,.2-.8,1.5,1.5,0,0,1,.5-.6,2.6,2.6,0,0,1,.9-.5l1-.2,1.1.2.7.4a2,2,0,0,1,.6.7,3.1,3.1,0,0,1,.1,1v3.3a.8.8,0,0,0,.1.4v.3c0,.2,0,.3.1.4a.4.4,0,0,0,.1.3h-.9Zm-2.3-.5h.7l.7-.3.5-.4.3-.6V61.1h-2.4l-.7.3-.5.5a1.4,1.4,0,0,0-.2.6,1.3,1.3,0,0,0,.1.6l.3.4.5.3Z"/></svg>